<?xml version="1.0" encoding="utf-8"?>
<svg version="1.1" xmlns:xlink="http://www.w3.org/1999/xlink" width="193px" height="193px" xmlns="http://www.w3.org/2000/svg">
  <g transform="matrix(1 0 0 1 -654 -72 )">
    <path d="M 750.5 72  C 804.54 72  847 114.46  847 168.5  C 847 222.54  804.54 265  750.5 265  C 696.46 265  654 222.54  654 168.5  C 654 114.46  696.46 72  750.5 72  Z " fill-rule="nonzero" fill="#ffffff" stroke="none" />
    <path d="M 750.5 72.5  C 804.26 72.5  846.5 114.74  846.5 168.5  C 846.5 222.26  804.26 264.5  750.5 264.5  C 696.74 264.5  654.5 222.26  654.5 168.5  C 654.5 114.74  696.74 72.5  750.5 72.5  Z " stroke-width="1" stroke="#797979" fill="none" />
  </g>
</svg>